<?xml version="1.0" standalone="no"?>
<!DOCTYPE svg PUBLIC "-//W3C//DTD SVG 1.1//EN" "http://www.w3.org/Graphics/SVG/1.1/DTD/svg11.dtd" >
<svg>
<metadata>
Created by FontForge 20090914 at Tue Feb  4 09:19:37 2014
 By www-data
Created by total FontGeek, generated by Fontstruct. Licensed under CC BY SA.
</metadata>
<defs>
<font id="Quantifier-NBP" horiz-adv-x="896" >
  <font-face 
    font-family="Quantifier NBP"
    font-weight="400"
    font-stretch="normal"
    units-per-em="2048"
    panose-1="0 0 4 0 0 0 0 0 0 0"
    ascent="1638"
    descent="-410"
    x-height="895.999"
    cap-height="896"
    bbox="-0.000976562 -128 1024 1024"
    underline-thickness="51"
    underline-position="126"
    unicode-range="U+0020-U+201D"
  />
<missing-glyph horiz-adv-x="0" 
 />
    <glyph glyph-name=".notdef" horiz-adv-x="0" 
 />
    <glyph glyph-name="space" unicode=" " horiz-adv-x="384" 
 />
    <glyph glyph-name="exclam" unicode="!" horiz-adv-x="384" 
d="M0 0v128h256v-128h-256zM0 256v512h256v-512h-256z" />
    <glyph glyph-name="quotedbl" unicode="&#x22;" horiz-adv-x="512" 
d="M0 640v256h128v-256h-128zM256 640v256h128v-256h-128z" />
    <glyph glyph-name="numbersign" unicode="#" horiz-adv-x="1024" 
d="M512 256v256h-128v-256h128zM128 0v128h-128v128h128v256h-128v128h128v128h256v-128h128v128h256v-128h128v-128h-128v-256h128v-128h-128v-128h-256v128h-128v-128h-256z" />
    <glyph glyph-name="dollar" unicode="$" 
d="M256 -128l0.000976562 128.001h-256v128h384c34.667 0 64.667 12.333 90 37c25.333 25.333 38 55.666 38 90.999c0 34.667 -12.667 64.667 -38 90s-55.333 38 -90 38h-128c-71.333 0 -132 25 -182 75c-49.333 49.333 -74 109.666 -74 180.999c0 70.667 25 131 75 181
c49.333 50 109.666 75 180.999 75v128h256v-128h256v-128h-384c-35.333 0 -65.666 -12.667 -90.999 -38c-24.667 -25.333 -37 -55.333 -37 -90c0 -35.333 12.333 -65.666 37 -90.999c25.333 -24.667 55.666 -37 90.999 -37h128c70.667 0 131 -25.333 181 -76
c50 -49.333 75 -109.333 75 -180c0 -71.333 -25.333 -132 -76 -182c-49.333 -49.333 -109.333 -74 -180 -74v-128h-256z" />
    <glyph glyph-name="percent" unicode="%" horiz-adv-x="768" 
d="M640 0c-35.333 0 -65.666 12.333 -90.999 37c-24.667 25.333 -37 55.666 -37 90.999c0 34.667 12.333 64.667 37 90c25.333 25.333 55.666 38 90.999 38c34.667 0 64.667 -12.667 90 -38s38 -55.333 38 -90c0 -35.333 -12.667 -65.666 -38 -90.999
c-25.333 -24.667 -55.333 -37 -90 -37v0zM128 768c-35.333 0 -65.666 12.333 -90.999 37c-24.667 25.333 -37 55.666 -37 90.999c0 34.667 12.333 64.667 37 90c25.333 25.333 55.666 38 90.999 38c34.667 0 64.667 -12.667 90 -38s38 -55.333 38 -90
c0 -35.333 -12.667 -65.666 -38 -90.999c-25.333 -24.667 -55.333 -37 -90 -37v0zM0 0l512 1024h256l-512 -1024h-256z" />
    <glyph glyph-name="ampersand" unicode="&#x26;" horiz-adv-x="1024" 
d="M512 128v255.999h-128c-35.333 0 -65.666 -12.667 -90.999 -38c-24.667 -25.333 -37 -55.333 -37 -90c0 -35.333 12.333 -65.666 37 -90.999c25.333 -24.667 55.666 -37 90.999 -37h128zM256 -0.000976562c-71.333 0 -131.667 24.667 -181 74c-50 50 -75 110.667 -75 182
c0 70.667 24.667 130.667 74 180l12 12c-4 3.33301 -7.66699 6.66602 -11 9.99902c-50 50 -75 110.667 -75 182c0 70.667 24.667 130.667 74 180c50 50.667 110.667 76 182 76h512v-128h-384c-35.333 0 -65.666 -12.667 -90.999 -38c-24.667 -25.333 -37 -55.333 -37 -90
c0 -35.333 12.333 -65.666 37 -90.999c25.333 -24.667 55.666 -37 90.999 -37h512v-128h-128v-384h-512z" />
    <glyph glyph-name="quotesingle" unicode="'" horiz-adv-x="256" 
d="M0 640v256h128v-256h-128z" />
    <glyph glyph-name="parenleft" unicode="(" horiz-adv-x="512" 
d="M256 33h-1h1v0zM256 0c-71.333 0 -131.999 25 -181.999 75c-49.333 49.333 -74 109.666 -74 180.999v384c0 70.667 25 131 75 181c49.333 50 109.666 75 180.999 75h128v-128c-35.333 0 -65.666 -12.667 -90.999 -38c-24.667 -25.333 -37 -55.333 -37 -90v-384
c0 -35.333 12.333 -65.666 37 -90.999c25.333 -24.667 55.666 -37 90.999 -37v-128h-128z" />
    <glyph glyph-name="parenright" unicode=")" horiz-adv-x="512" 
d="M0 0v128.001c34.667 0 64.667 12.333 90 37c25.333 25.333 38 55.666 38 90.999v384c0 34.667 -12.667 64.667 -38 90s-55.333 38 -90 38v128h128c70.667 0 131 -25.333 181 -76c50 -49.333 75 -109.333 75 -180v-384c0 -71.333 -25.333 -132 -76 -182
c-49.333 -49.333 -109.333 -74 -180 -74h-128z" />
    <glyph glyph-name="asterisk" unicode="*" 
d="M256 128l128 256l128 -256h-256zM0 384v256l256 -128l-256 -128v0zM768 384l-256 128l256 128v-256v0zM384 640l-128 256h256l-128 -256v0z" />
    <glyph glyph-name="plus" unicode="+" 
d="M256 128v256h-256v128h256v256h256v-256h256v-128h-256v-256h-256z" />
    <glyph glyph-name="comma" unicode="," horiz-adv-x="384" 
d="M128 -128v128.001c-35.333 0 -65.666 12.333 -90.999 37c-24.667 25.333 -37 55.666 -37 90.999c0 34.667 12.333 64.667 37 90c25.333 25.333 55.666 38 90.999 38c34.667 0 64.667 -12.667 90 -38s38 -55.333 38 -90v-256h-128z" />
    <glyph glyph-name="hyphen" unicode="-" horiz-adv-x="640" 
d="M0 384v128h512v-128h-512z" />
    <glyph glyph-name="period" unicode="." horiz-adv-x="384" 
d="M128 0c-35.333 0 -65.666 12.333 -90.999 37c-24.667 25.333 -37 55.666 -37 90.999c0 34.667 12.333 64.667 37 90c25.333 25.333 55.666 38 90.999 38c34.667 0 64.667 -12.667 90 -38s38 -55.333 38 -90c0 -35.333 -12.667 -65.666 -38 -90.999
c-25.333 -24.667 -55.333 -37 -90 -37v0z" />
    <glyph glyph-name="slash" unicode="/" horiz-adv-x="640" 
d="M0 0l384 768h256l-384 -768h-256z" />
    <glyph glyph-name="zero" unicode="0" 
d="M256 33h-1h1v0zM384 128c34.667 0 64.667 12.333 90 37c25.333 25.333 38 55.666 38 90.999v384c0 34.667 -12.667 64.667 -38 90s-55.333 38 -90 38c-35.333 0 -65.666 -12.667 -90.999 -38c-24.667 -25.333 -37 -55.333 -37 -90v-384
c0 -35.333 12.333 -65.666 37 -90.999c25.333 -24.667 55.666 -37 90.999 -37v0zM256 0c-71.333 0 -131.999 25.001 -181.999 75.001c-49.333 49.333 -74 109.666 -74 180.999v384c0 70.667 25 131 75 181c49.333 50 109.666 75 180.999 75h256
c70.667 0 131 -25.333 181 -76c50 -49.333 75 -109.333 75 -180v-384c0 -71.333 -25.333 -132 -76 -182c-49.333 -49.333 -109.333 -74 -180 -74h-256z" />
    <glyph glyph-name="one" unicode="1" horiz-adv-x="512" 
d="M128 0v640c0 34.667 -12.667 64.667 -38 90s-55.333 38 -90 38v128h128c70.667 0 131 -25.333 181 -76c50 -49.333 75 -109.333 75 -180v-640h-256z" />
    <glyph glyph-name="two" unicode="2" 
d="M0 0v256.001c0 70.667 25 131 75 181c49.333 50 109.666 75 180.999 75h128c34.667 0 64.667 12.333 90 37c25.333 25.333 38 55.666 38 90.999c0 34.667 -12.667 64.667 -38 90s-55.333 38 -90 38h-384v128h512c70.667 0 131 -25.333 181 -76
c50 -49.333 75 -109.333 75 -180c0 -71.333 -25.333 -132 -76 -182c-49.333 -49.333 -109.333 -74 -180 -74h-128c-35.333 0 -65.666 -12.667 -90.999 -38c-24.667 -25.333 -37 -55.333 -37 -90v-128h512v-128h-768z" />
    <glyph glyph-name="three" unicode="3" 
d="M0 0v128.001h384c34.667 0 64.667 12.333 90 37c25.333 25.333 38 55.666 38 90.999c0 34.667 -12.667 64.667 -38 90s-55.333 38 -90 38h-256v128h256c34.667 0 64.667 12.333 90 37c25.333 25.333 38 55.666 38 90.999c0 34.667 -12.667 64.667 -38 90
s-55.333 38 -90 38h-384v128h512c70.667 0 131 -25.333 181 -76c50 -49.333 75 -109.333 75 -180c0 -71.333 -25.333 -132 -76 -182c-3.33301 -3.33301 -7 -6.66602 -11 -9.99902v0l12 -12c50 -49.333 75 -109.333 75 -180c0 -71.333 -25.333 -132 -76 -182
c-49.333 -49.333 -109.333 -74 -180 -74h-512z" />
    <glyph glyph-name="four" unicode="4" 
d="M512 0v384h-512l256 512h256l-192 -384h192v256h256v-768h-256z" />
    <glyph glyph-name="five" unicode="5" 
d="M0 0v128.001h384c34.667 0 64.667 12.333 90 37c25.333 25.333 38 55.666 38 90.999c0 34.667 -12.667 64.667 -38 90s-55.333 38 -90 38h-384v512h768v-128h-512v-256h256c70.667 0 131 -25.333 181 -76c50 -49.333 75 -109.333 75 -180
c0 -71.333 -25.333 -132 -76 -182c-49.333 -49.333 -109.333 -74 -180 -74h-512z" />
    <glyph glyph-name="six" unicode="6" 
d="M256 33h-1h1v0zM384 128c34.667 0 64.668 12.333 90.001 37c25.333 25.333 38 55.666 38 90.999v128c0 34.667 -12.667 64.667 -38 90s-55.333 38 -90 38h-128v-256c0 -35.333 12.333 -65.666 37 -90.999c25.333 -24.667 55.666 -37 90.999 -37v0zM256.001 0
c-71.333 0 -132 25.001 -182 75.001c-49.333 49.333 -74 109.666 -74 180.999v384c0 70.667 25 131 75 181c49.333 50 109.666 75 180.999 75h256v-128h-128c-35.333 0 -65.666 -12.667 -90.999 -38c-24.667 -25.333 -37 -55.333 -37 -90h256c70.667 0 131 -25.333 181 -76
c50 -49.333 75 -109.333 75 -180v-128c0 -71.333 -25.333 -132 -76 -182c-49.333 -49.333 -109.333 -74 -180 -74h-256z" />
    <glyph glyph-name="seven" unicode="7" 
d="M128 0l384 768h-512v128h768v-128l-384 -768h-256z" />
    <glyph glyph-name="eight" unicode="8" 
d="M384 128c34.667 0 64.667 12.333 90 37c25.333 25.333 38 55.666 38 90.999c0 34.667 -12.667 64.667 -38 90s-55.333 38 -90 38c-35.333 0 -65.666 -12.667 -90.999 -38c-24.667 -25.333 -37 -55.333 -37 -90c0 -35.333 12.333 -65.666 37 -90.999
c25.333 -24.667 55.666 -37 90.999 -37v0zM384 512c34.667 0 64.667 12.333 90 37c25.333 25.333 38 55.666 38 90.999c0 34.667 -12.667 64.667 -38 90s-55.333 38 -90 38c-35.333 0 -65.666 -12.667 -90.999 -38c-24.667 -25.333 -37 -55.333 -37 -90
c0 -35.333 12.333 -65.666 37 -90.999c25.333 -24.667 55.666 -37 90.999 -37v0zM256 0c-71.333 0 -131.667 24.667 -181 74c-50 50 -75 110.667 -75 182c0 70.667 24.667 130.667 74 180l12 12v0c-4 3.33301 -7.66699 6.66602 -11 9.99902c-50 50 -75 110.667 -75 182
c0 70.667 24.667 130.667 74 180c50 50.667 110.667 76 182 76h256c70.667 0 131 -25.333 181 -76c50 -49.333 75 -109.333 75 -180c0 -71.333 -25.333 -132 -76 -182c-3.33301 -3.33301 -7 -6.66602 -11 -9.99902v0l12 -12c50 -49.333 75 -109.333 75 -180
c0 -71.333 -25.333 -132 -76 -182c-49.333 -49.333 -109.333 -74 -180 -74h-256z" />
    <glyph glyph-name="nine" unicode="9" 
d="M512 33v0v0v0zM512 384v255.999c0 34.667 -12.667 64.667 -38 90s-55.333 38 -90 38c-35.333 0 -65.666 -12.667 -90.999 -38c-24.667 -25.333 -37 -55.333 -37 -90v-128c0 -35.333 12.333 -65.666 37 -90.999c25.333 -24.667 55.666 -37 90.999 -37h128z
M256 -0.000976562l0.000976562 128.002h128c34.667 0 64.667 12.333 90 37c25.333 25.333 38 55.666 38 90.999h-256c-71.333 0 -132 25 -182 75c-49.333 49.333 -74 109.666 -74 180.999v128c0 70.667 25 131 75 181c49.333 50 109.666 75 180.999 75h256
c70.667 0 131 -25.333 181 -76c50 -49.333 75 -109.333 75 -180v-384c0 -71.333 -25.333 -132 -76 -182c-49.333 -49.333 -109.333 -74 -180 -74h-256z" />
    <glyph glyph-name="colon" unicode=":" horiz-adv-x="384" 
d="M128 0c-35.333 0 -65.666 12.333 -90.999 37c-24.667 25.333 -37 55.666 -37 90.999c0 34.667 12.333 64.667 37 90c25.333 25.333 55.666 38 90.999 38c34.667 0 64.667 -12.667 90 -38s38 -55.333 38 -90c0 -35.333 -12.667 -65.666 -38 -90.999
c-25.333 -24.667 -55.333 -37 -90 -37v0zM128 640c-35.333 0 -65.666 12.333 -90.999 37c-24.667 25.333 -37 55.666 -37 90.999c0 34.667 12.333 64.667 37 90c25.333 25.333 55.666 38 90.999 38c34.667 0 64.667 -12.667 90 -38s38 -55.333 38 -90
c0 -35.333 -12.667 -65.666 -38 -90.999c-25.333 -24.667 -55.333 -37 -90 -37v0z" />
    <glyph glyph-name="semicolon" unicode=";" horiz-adv-x="384" 
d="M128 -128v128.001c-35.333 0 -65.666 12.333 -90.999 37c-24.667 25.333 -37 55.666 -37 90.999c0 34.667 12.333 64.667 37 90c25.333 25.333 55.666 38 90.999 38c34.667 0 64.667 -12.667 90 -38s38 -55.333 38 -90v-256h-128zM128 640.001
c-35.333 0 -65.666 12.333 -90.999 37c-24.667 25.333 -37 55.666 -37 90.999c0 34.667 12.333 64.667 37 90c25.333 25.333 55.666 38 90.999 38c34.667 0 64.667 -12.667 90 -38s38 -55.333 38 -90c0 -35.333 -12.667 -65.666 -38 -90.999
c-25.333 -24.667 -55.333 -37 -90 -37v0z" />
    <glyph glyph-name="less" unicode="&#x3c;" horiz-adv-x="640" 
d="M512 128l-512 256l512 256v-128l-256 -128l256 -128v-128v0z" />
    <glyph glyph-name="equal" unicode="=" horiz-adv-x="640" 
d="M0 256v128h512v-128h-512zM0 512v128h512v-128h-512z" />
    <glyph glyph-name="greater" unicode="&#x3e;" horiz-adv-x="640" 
d="M0 128v128l256 128l-256 128v128l512 -256l-512 -256v0z" />
    <glyph glyph-name="question" unicode="?" horiz-adv-x="768" 
d="M256 0v128h256v-128h-256zM256 256v128.001h128c34.667 0 64.667 12.333 90 37c25.333 25.333 38 55.666 38 90.999c0 34.667 -12.667 64.667 -38 90s-55.333 38 -90 38h-384v128h512c70.667 0 131 -25.333 181 -76c50 -49.333 75 -109.333 75 -180
c0 -71.333 -25.333 -132 -76 -182c-49.333 -49.333 -109.333 -74 -180 -74h-256z" />
    <glyph glyph-name="at" unicode="@" 
d="M512 256c34.667 0 64.667 12.333 90 37c25.333 25.333 38 55.666 38 90.999c0 34.667 -12.667 64.667 -38 90s-55.333 38 -90 38c-35.333 0 -65.666 -12.667 -90.999 -38c-24.667 -25.333 -37 -55.333 -37 -90c0 -35.333 12.333 -65.666 37 -90.999
c25.333 -24.667 55.666 -37 90.999 -37v0zM256 -128c-71.333 0 -131.998 25.333 -181.998 76c-49.333 48.667 -74 108.667 -74 180v512c0 70.667 25 131 75 181c49.333 50 109.666 75 180.999 75h256c70.667 0 131 -25.333 181 -76c50 -49.333 75 -109.333 75 -180v-512
h-128v33c-38.667 -22 -81.334 -33 -128.001 -33c-71.333 0 -132 25 -182 75c-49.333 49.333 -74 109.666 -74 180.999c0 70.667 25 131 75 181c49.333 50 109.666 75 180.999 75c46.667 0 89.334 -11.333 128.001 -34v34c0 34.667 -12.667 64.667 -38 90s-55.333 38 -90 38
h-256c-35.333 0 -65.666 -12.667 -90.999 -38c-24.667 -25.333 -37 -55.333 -37 -90v-512c0 -35.333 12.333 -65.666 37 -90.999c25.333 -24.667 55.666 -37 90.999 -37h512v-128h-512z" />
    <glyph glyph-name="A" unicode="A" 
d="M512 512l-0.000976562 128c0 34.667 -12.667 64.667 -38 90s-55.333 38 -90 38c-35.333 0 -65.666 -12.667 -90.999 -38c-24.667 -25.333 -37 -55.333 -37 -90v-128h256zM-0.000976562 0l0.000976562 640c0 70.667 25 131 75 181c49.333 50 109.666 75 180.999 75h256
c70.667 0 131 -25.333 181 -76c50 -49.333 75 -109.333 75 -180v-640h-256v384h-256v-384h-256z" />
    <glyph glyph-name="B" unicode="B" 
d="M384 128c34.667 0 64.667 12.334 90 37.001c25.333 25.333 38 55.666 38 90.999c0 34.667 -12.667 64.667 -38 90s-55.333 38 -90 38h-128v-256h128zM384 512.001c34.667 0 64.667 12.334 90 37.001c25.333 25.333 38 55.666 38 90.999c0 34.667 -12.667 64.667 -38 90
s-55.333 38 -90 38h-128v-256h128zM0 0.00195312v895.999h512c70.667 0 131 -25.333 181 -76c50 -49.333 75 -109.333 75 -180c0 -71.333 -25.333 -132 -76 -182c-3.33301 -3.33301 -7 -6.66602 -11 -9.99902l12 -12c50 -49.333 75 -109.333 75 -180
c0 -71.333 -25.333 -132 -76 -182c-49.333 -49.333 -109.333 -74 -180 -74h-512z" />
    <glyph glyph-name="C" unicode="C" 
d="M256 33h-1h1v0zM256 0c-71.333 0 -131.999 25 -181.999 75c-49.333 49.333 -74 109.666 -74 180.999v384c0 70.667 25 131 75 181c49.333 50 109.666 75 180.999 75h512v-128h-384c-35.333 0 -65.666 -12.667 -90.999 -38c-24.667 -25.333 -37 -55.333 -37 -90v-384
c0 -35.333 12.333 -65.666 37 -90.999c25.333 -24.667 55.666 -37 90.999 -37h384v-128h-512z" />
    <glyph glyph-name="D" unicode="D" 
d="M384 128c34.667 0 64.667 12.334 90 37.001c25.333 25.333 38 55.666 38 90.999v384c0 34.667 -12.667 64.667 -38 90s-55.333 38 -90 38h-128v-640h128zM0 0.000976562v896h512c70.667 0 131 -25.333 181 -76c50 -49.333 75 -109.333 75 -180v-384
c0 -71.333 -25.333 -132 -76 -182c-49.333 -49.333 -109.333 -74 -180 -74h-512z" />
    <glyph glyph-name="E" unicode="E" 
d="M256 33h-1h1v0zM256 0c-71.333 0 -131.999 25 -181.999 75c-49.333 49.333 -74 109.666 -74 180.999v384c0 70.667 25 131 75 181c49.333 50 109.666 75 180.999 75h512v-128h-384c-35.333 0 -65.666 -12.667 -90.999 -38c-24.667 -25.333 -37 -55.333 -37 -90v-128h512
v-128h-512v-128c0 -35.333 12.333 -65.666 37 -90.999c25.333 -24.667 55.666 -37 90.999 -37h384v-128h-512z" />
    <glyph glyph-name="F" unicode="F" 
d="M0 0v640c0 70.667 25 131 75 181c49.333 50 109.666 75 180.999 75h512v-128h-384c-35.333 0 -65.666 -12.667 -90.999 -38c-24.667 -25.333 -37 -55.333 -37 -90v-128h512v-128h-512v-384h-256z" />
    <glyph glyph-name="G" unicode="G" 
d="M256 33h-1h1v0zM256 0c-71.333 0 -131.999 25 -181.999 75c-49.333 49.333 -74 109.666 -74 180.999v384c0 70.667 25 131 75 181c49.333 50 109.666 75 180.999 75h512v-128h-384c-35.333 0 -65.666 -12.667 -90.999 -38c-24.667 -25.333 -37 -55.333 -37 -90v-384
c0 -35.333 12.333 -65.666 37 -90.999c25.333 -24.667 55.666 -37 90.999 -37h128v384h256v-512h-512z" />
    <glyph glyph-name="H" unicode="H" 
d="M0 0v896h256v-384h256v384h256v-896h-256v384h-256v-384h-256z" />
    <glyph glyph-name="I" unicode="I" horiz-adv-x="384" 
d="M0 0v896h256v-896h-256z" />
    <glyph glyph-name="J" unicode="J" 
d="M0 0v128.001h384c34.667 0 64.667 12.333 90 37c25.333 25.333 38 55.666 38 90.999v640h256v-640c0 -71.333 -25.333 -132 -76 -182c-49.333 -49.333 -109.333 -74 -180 -74h-512z" />
    <glyph glyph-name="K" unicode="K" 
d="M0 0l0.000976562 896h256v-384h64l192 384h256l-196 -391c45.333 -10.667 85.666 -33.667 120.999 -69c50 -49.333 75 -109.333 75 -180v-256h-256v256c0 34.667 -12.667 64.667 -38 90s-55.333 38 -90 38h-128v-384h-256z" />
    <glyph glyph-name="L" unicode="L" 
d="M256 33h-1h1v0zM256 0c-71.333 0 -131.999 25 -181.999 75c-49.333 49.333 -74 109.666 -74 180.999v640h256v-640c0 -35.333 12.333 -65.666 37 -90.999c25.333 -24.667 55.666 -37 90.999 -37h384v-128h-512z" />
    <glyph glyph-name="M" unicode="M" horiz-adv-x="1152" 
d="M0 0l-0.000976562 896h384c46.667 0 89.334 -11.333 128.001 -34c38 22.667 80.667 34 128 34h128c70.667 0 131 -25.333 181 -76c50 -49.333 75 -109.333 75 -180v-640h-256v640c0 34.667 -12.667 64.667 -38 90c-8 8 -16.667 15 -26 21c-10 -6 -19 -13 -27 -21
c-24.667 -25.333 -37 -55.333 -37 -90v-640h-256v640c0 34.667 -12.667 64.667 -38 90s-55.333 38 -90 38v-768h-256z" />
    <glyph glyph-name="N" unicode="N" 
d="M0 0v896h512c70.667 0 131 -25.333 181 -76c50 -49.333 75 -109.333 75 -180v-640h-256v640c0 34.667 -12.667 64.667 -38 90s-55.333 38 -90 38h-128v-768h-256z" />
    <glyph glyph-name="O" unicode="O" 
d="M256 33h-1h1v0zM384 128c34.667 0 64.667 12.333 90 37c25.333 25.333 38 55.666 38 90.999v384c0 34.667 -12.667 64.667 -38 90s-55.333 38 -90 38c-35.333 0 -65.666 -12.667 -90.999 -38c-24.667 -25.333 -37 -55.333 -37 -90v-384
c0 -35.333 12.333 -65.666 37 -90.999c25.333 -24.667 55.666 -37 90.999 -37v0zM256 0c-71.333 0 -131.999 25.001 -181.999 75.001c-49.333 49.333 -74 109.666 -74 180.999v384c0 70.667 25 131 75 181c49.333 50 109.666 75 180.999 75h256
c70.667 0 131 -25.333 181 -76c50 -49.333 75 -109.333 75 -180v-384c0 -71.333 -25.333 -132 -76 -182c-49.333 -49.333 -109.333 -74 -180 -74h-256z" />
    <glyph glyph-name="P" unicode="P" 
d="M384 512c34.667 0 64.667 12.334 90 37.001c25.333 25.333 38 55.666 38 90.999c0 34.667 -12.667 64.667 -38 90s-55.333 38 -90 38h-128v-256h128zM0 0.000976562v896h512c70.667 0 131 -25.333 181 -76c50 -49.333 75 -109.333 75 -180
c0 -71.333 -25.333 -132 -76 -182c-49.333 -49.333 -109.333 -74 -180 -74h-256v-384h-256z" />
    <glyph glyph-name="Q" unicode="Q" 
d="M256 33h-1h1v0zM384 128c34.667 0 64.667 12.333 90 37c25.333 25.333 38 55.666 38 90.999v384c0 34.667 -12.667 64.667 -38 90s-55.333 38 -90 38c-35.333 0 -65.666 -12.667 -90.999 -38c-24.667 -25.333 -37 -55.333 -37 -90v-384
c0 -35.333 12.333 -65.666 37 -90.999c25.333 -24.667 55.666 -37 90.999 -37v0zM640 -128c-71.333 0 -131.999 25.334 -181.999 76.001c-16 16 -29.667 33.333 -41 52h-161c-71.333 0 -132 25 -182 75c-49.333 49.333 -74 109.666 -74 180.999v384c0 70.667 25 131 75 181
c49.333 50 109.666 75 180.999 75h256c70.667 0 131 -25.333 181 -76c50 -49.333 75 -109.333 75 -180v-384c0 -71.333 -25.333 -132 -76 -182c-30.667 -30.667 -65.667 -52 -105 -64c16 -6.66699 33.667 -10 53 -10h128v-128h-128z" />
    <glyph glyph-name="R" unicode="R" 
d="M384 512c34.667 0 64.667 12.334 90 37.001c25.333 25.333 38 55.666 38 90.999c0 34.667 -12.667 64.667 -38 90s-55.333 38 -90 38h-128v-256h128zM0 0.000976562v895.999h512c70.667 0 131 -25.333 181 -76c50 -49.333 75 -109.333 75 -180
c0 -71.333 -25.333 -132 -76 -182c-3.33301 -3.33301 -7 -6.66602 -11 -9.99902l12 -12c50 -49.333 75 -109.333 75 -180v-256h-256v256c0 34.667 -12.667 64.667 -38 90s-55.333 38 -90 38h-128v-384h-256z" />
    <glyph glyph-name="S" unicode="S" 
d="M0 0l0.000976562 128.001h384c34.667 0 64.667 12.333 90 37c25.333 25.333 38 55.666 38 90.999c0 34.667 -12.667 64.667 -38 90s-55.333 38 -90 38h-128c-71.333 0 -132 25 -182 75c-49.333 49.333 -74 109.666 -74 180.999c0 70.667 25 131 75 181
c49.333 50 109.666 75 180.999 75h512v-128h-384c-35.333 0 -65.666 -12.667 -90.999 -38c-24.667 -25.333 -37 -55.333 -37 -90c0 -35.333 12.333 -65.666 37 -90.999c25.333 -24.667 55.666 -37 90.999 -37h128c70.667 0 131 -25.333 181 -76
c50 -49.333 75 -109.333 75 -180c0 -71.333 -25.333 -132 -76 -182c-49.333 -49.333 -109.333 -74 -180 -74h-512z" />
    <glyph glyph-name="T" unicode="T" 
d="M256 0v768h-256v128h768v-128h-256v-768h-256z" />
    <glyph glyph-name="U" unicode="U" 
d="M256 33h-1h1v0zM256 0c-71.333 0 -131.999 25.001 -181.999 75.001c-49.333 49.333 -74 109.666 -74 180.999v640h256v-640c0 -35.333 12.333 -65.666 37 -90.999c25.333 -24.667 55.666 -37 90.999 -37c34.667 0 64.667 12.333 90 37c25.333 25.333 38 55.666 38 90.999
v640h256v-640c0 -71.333 -25.333 -132 -76 -182c-49.333 -49.333 -109.333 -74 -180 -74h-256z" />
    <glyph glyph-name="V" unicode="V" 
d="M256 33h-1h1v0zM256 0c-71.333 0 -131.999 25 -181.999 75c-49.333 49.333 -74 109.666 -74 180.999v640h256v-640c0 -35.333 12.333 -65.666 37 -90.999c25.333 -24.667 55.666 -37 90.999 -37h128v768h256v-896h-512z" />
    <glyph glyph-name="W" unicode="W" horiz-adv-x="1152" 
d="M384 33v0v0v0zM256 33h-1h1v0zM256 0c-71.333 0 -131.999 25 -181.999 75c-49.333 49.333 -74 109.666 -74 180.999v640h256v-640c0 -35.333 12.333 -65.666 37 -90.999c8 -8 17 -15 27 -21c9.33301 6 18 13 26 21c25.333 25.333 38 55.666 38 90.999v640h256v-640
c0 -35.333 12.333 -65.666 37 -90.999c8 -8 17 -15 27 -21c9.33301 6 18 13 26 21c25.333 25.333 38 55.666 38 90.999v640h256v-640c0 -71.333 -25 -131.666 -75 -180.999c-50 -50 -110.333 -75 -181 -75h-128c-47.333 0 -90 11 -128 33
c-38.667 -22 -81.334 -33 -128.001 -33h-128z" />
    <glyph glyph-name="X" unicode="X" 
d="M0 0v256.001c0 70.667 25 131 75 181c3.33301 3.33301 7 6.66602 11 9.99902l-12 12c-49.333 49.333 -74 109.666 -74 180.999v256h256v-256c0 -35.333 12.333 -65.666 37 -90.999c25.333 -24.667 55.666 -37 90.999 -37c34.667 0 64.667 12.333 90 37
c25.333 25.333 38 55.666 38 90.999v256h256v-256c0 -71.333 -25.333 -132 -76 -182c-3.33301 -3.33301 -7 -6.66602 -11 -9.99902l12 -12c50 -49.333 75 -109.333 75 -180v-256h-256v256c0 34.667 -12.667 64.667 -38 90s-55.333 38 -90 38
c-35.333 0 -65.666 -12.667 -90.999 -38c-24.667 -25.333 -37 -55.333 -37 -90v-256h-256z" />
    <glyph glyph-name="Y" unicode="Y" 
d="M256 0l0.000976562 384.001c-71.333 0 -132 25 -182 75c-49.333 49.333 -74 109.666 -74 180.999v256h256v-256c0 -35.333 12.333 -65.666 37 -90.999c25.333 -24.667 55.666 -37 90.999 -37c34.667 0 64.667 12.333 90 37c25.333 25.333 38 55.666 38 90.999v256h256
v-256c0 -71.333 -25.333 -132 -76 -182c-49.333 -49.333 -109.333 -74 -180 -74v-384h-256z" />
    <glyph glyph-name="Z" unicode="Z" 
d="M0 0v384l512 256v128h-512v128h768v-384l-512 -256v-128h512v-128h-768z" />
    <glyph glyph-name="bracketleft" unicode="[" horiz-adv-x="512" 
d="M0 0v896h384v-128h-128v-640h128v-128h-384z" />
    <glyph glyph-name="backslash" unicode="\" horiz-adv-x="640" 
d="M384 0l-384 768h256l384 -768h-256z" />
    <glyph glyph-name="bracketright" unicode="]" horiz-adv-x="512" 
d="M0 0v128h128v640h-128v128h384v-896h-384z" />
    <glyph glyph-name="asciicircum" unicode="^" horiz-adv-x="384" 
d="M0 640l128 256h128l128 -256h-128l-64 128l-64 -128h-128z" />
    <glyph glyph-name="underscore" unicode="_" 
d="M0 0v128h768v-128h-768z" />
    <glyph glyph-name="a" unicode="a" 
d="M256 33h-1h1v0zM512 128v383.999h-128c-35.333 0 -65.666 -12.667 -90.999 -38c-24.667 -25.333 -37 -55.333 -37 -90v-128c0 -35.333 12.333 -65.666 37 -90.999c25.333 -24.667 55.666 -37 90.999 -37h128zM256 -0.000976562
c-71.333 0 -131.999 25.001 -181.999 75.001c-49.333 49.333 -74 109.666 -74 180.999v128c0 70.667 25 131 75 181c49.333 50 109.666 75 180.999 75h256c0 34.667 -12.667 64.667 -38 90s-55.333 38 -90 38h-384v128h512c70.667 0 131 -25.333 181 -76
c50 -49.333 75 -109.333 75 -180v-640h-512z" />
    <glyph glyph-name="b" unicode="b" 
d="M384 128c34.667 0 64.667 12.334 90 37.001c25.333 25.333 38 55.666 38 90.999v384c0 34.667 -12.667 64.667 -38 90s-55.333 38 -90 38h-128v-640h128zM0 0.000976562v1024h256v-128h256c70.667 0 131 -25.333 181 -76c50 -49.333 75 -109.333 75 -180v-384
c0 -71.333 -25.333 -132 -76 -182c-49.333 -49.333 -109.333 -74 -180 -74h-512z" />
    <glyph glyph-name="c" unicode="c" 
d="M256 33h-1h1v0zM256 0c-71.333 0 -131.999 25.001 -181.999 75.001c-49.333 49.333 -74 109.666 -74 180.999v384c0 70.667 25 131 75 181c49.333 50 109.666 75 180.999 75h256c70.667 0 131 -25.333 181 -76c50 -49.333 75 -109.333 75 -180h-256
c0 34.667 -12.667 64.667 -38 90s-55.333 38 -90 38c-35.333 0 -65.666 -12.667 -90.999 -38c-24.667 -25.333 -37 -55.333 -37 -90v-384c0 -35.333 12.333 -65.666 37 -90.999c25.333 -24.667 55.666 -37 90.999 -37c34.667 0 64.667 12.333 90 37
c25.333 25.333 38 55.666 38 90.999h256c0 -71.333 -25.333 -132 -76 -182c-49.333 -49.333 -109.333 -74 -180 -74h-256z" />
    <glyph glyph-name="d" unicode="d" 
d="M512 128v639.999h-128c-35.333 0 -65.666 -12.667 -90.999 -38c-24.667 -25.333 -37 -55.333 -37 -90v-384c0 -35.333 12.333 -65.666 37 -90.999c25.333 -24.667 55.666 -37 90.999 -37h128zM256 -0.000976562c-71.333 0 -131.667 24.667 -181 74
c-50 50 -75 110.667 -75 182v384c0 70.667 24.667 130.667 74 180c50 50.667 110.667 76 182 76h256v128h256v-1024h-512z" />
    <glyph glyph-name="e" unicode="e" 
d="M256 33h-1h1v0zM384 384c34.667 0 64.666 12.334 89.999 37.001c25.333 25.333 38 55.666 38 90.999v128c0 34.667 -12.667 64.667 -38 90s-55.333 38 -90 38c-35.333 0 -65.666 -12.667 -90.999 -38c-24.667 -25.333 -37 -55.333 -37 -90v-256h128zM255.999 0.000976562
c-71.333 0 -131.998 25 -181.998 75c-49.333 49.333 -74 109.666 -74 180.999v384c0 70.667 25 131 75 181c49.333 50 109.666 75 180.999 75h256c70.667 0 131 -25.333 181 -76c50 -49.333 75 -109.333 75 -180v-128c0 -71.333 -25.333 -132 -76 -182
c-49.333 -49.333 -109.333 -74 -180 -74h-256c0 -35.333 12.333 -65.666 37 -90.999c25.333 -24.667 55.666 -37 90.999 -37h384v-128h-512z" />
    <glyph glyph-name="f" unicode="f" 
d="M256 0v640h-256v128h256c0 70.667 25 131 75 181c49.333 50 109.666 75 180.999 75h256v-128h-128c-35.333 0 -65.666 -12.667 -90.999 -38c-24.667 -25.333 -37 -55.333 -37 -90h256v-128h-256v-640h-256z" />
    <glyph glyph-name="g" unicode="g" 
d="M512 384v383.999h-128c-35.333 0 -65.666 -12.667 -90.999 -38c-24.667 -25.333 -37 -55.333 -37 -90v-128c0 -35.333 12.333 -65.666 37 -90.999c25.333 -24.667 55.666 -37 90.999 -37h128zM0 -0.000976562l0.000976562 128.002h384c34.667 0 64.667 12.333 90 37
c25.333 25.333 38 55.666 38 90.999h-256c-71.333 0 -132 25 -182 75c-49.333 49.333 -74 109.666 -74 180.999v128c0 70.667 25 131 75 181c49.333 50 109.666 75 180.999 75h512v-640c0 -71.333 -25.333 -132 -76 -182c-49.333 -49.333 -109.333 -74 -180 -74h-512z" />
    <glyph glyph-name="h" unicode="h" 
d="M0 0v1024h256v-128h256c70.667 0 131 -25.333 181 -76c50 -49.333 75 -109.333 75 -180v-640h-256v640c0 34.667 -12.667 64.667 -38 90s-55.333 38 -90 38h-128v-768h-256z" />
    <glyph glyph-name="i" unicode="i" horiz-adv-x="384" 
d="M0 0v768h256v-768h-256zM0 896v128h256v-128h-256z" />
    <glyph glyph-name="j" unicode="j" horiz-adv-x="512" 
d="M0 0v128.001c34.667 0 64.667 12.333 90 37c25.333 25.333 38 55.666 38 90.999v512h256v-512c0 -71.333 -25.333 -132 -76 -182c-49.333 -49.333 -109.333 -74 -180 -74h-128zM128 896.001v128h256v-128h-256z" />
    <glyph glyph-name="k" unicode="k" 
d="M0 0l0.000976562 1024h256v-512h64l192 384h256l-196 -391c45.333 -10.667 85.666 -33.667 120.999 -69c50 -49.333 75 -109.333 75 -180v-256h-256v256c0 34.667 -12.667 64.667 -38 90s-55.333 38 -90 38h-128v-384h-256z" />
    <glyph glyph-name="l" unicode="l" horiz-adv-x="512" 
d="M256 33h-1h1v0zM256 0c-71.333 0 -131.999 25 -181.999 75c-49.333 49.333 -74 109.666 -74 180.999v768h256v-768c0 -35.333 12.333 -65.666 37 -90.999c25.333 -24.667 55.666 -37 90.999 -37v-128h-128z" />
    <glyph glyph-name="m" unicode="m" horiz-adv-x="1152" 
d="M0 0l-0.000976562 896h384c46.667 0 89.334 -11.333 128.001 -34c38 22.667 80.667 34 128 34h128c70.667 0 131 -25.333 181 -76c50 -49.333 75 -109.333 75 -180v-640h-256v640c0 34.667 -12.667 64.667 -38 90c-8 8 -16.667 15 -26 21c-10 -6 -19 -13 -27 -21
c-24.667 -25.333 -37 -55.333 -37 -90v-640h-256v640c0 34.667 -12.667 64.667 -38 90s-55.333 38 -90 38v-768h-256z" />
    <glyph glyph-name="n" unicode="n" 
d="M0 0v896h512c70.667 0 131 -25.333 181 -76c50 -49.333 75 -109.333 75 -180v-640h-256v640c0 34.667 -12.667 64.667 -38 90s-55.333 38 -90 38h-128v-768h-256z" />
    <glyph glyph-name="o" unicode="o" 
d="M256 33h-1h1v0zM384 128c34.667 0 64.667 12.333 90 37c25.333 25.333 38 55.666 38 90.999v384c0 34.667 -12.667 64.667 -38 90s-55.333 38 -90 38c-35.333 0 -65.666 -12.667 -90.999 -38c-24.667 -25.333 -37 -55.333 -37 -90v-384
c0 -35.333 12.333 -65.666 37 -90.999c25.333 -24.667 55.666 -37 90.999 -37v0zM256 0c-71.333 0 -131.999 25.001 -181.999 75.001c-49.333 49.333 -74 109.666 -74 180.999v384c0 70.667 25 131 75 181c49.333 50 109.666 75 180.999 75h256
c70.667 0 131 -25.333 181 -76c50 -49.333 75 -109.333 75 -180v-384c0 -71.333 -25.333 -132 -76 -182c-49.333 -49.333 -109.333 -74 -180 -74h-256z" />
    <glyph glyph-name="p" unicode="p" 
d="M384 512c34.667 0 64.667 12.334 90 37.001c25.333 25.333 38 55.666 38 90.999c0 34.667 -12.667 64.667 -38 90s-55.333 38 -90 38h-128v-256h128zM0 0.000976562v896h512c70.667 0 131 -25.333 181 -76c50 -49.333 75 -109.333 75 -180
c0 -71.333 -25.333 -132 -76 -182c-49.333 -49.333 -109.333 -74 -180 -74h-256v-384h-256z" />
    <glyph glyph-name="q" unicode="q" 
d="M512 512v255.999h-128c-35.333 0 -65.666 -12.667 -90.999 -38c-24.667 -25.333 -37 -55.333 -37 -90c0 -35.333 12.333 -65.666 37 -90.999c25.333 -24.667 55.666 -37 90.999 -37h128zM512 -0.000976562l-0.000976562 384h-256c-71.333 0 -131.666 24.667 -180.999 74
c-50 50 -75 110.667 -75 182c0 70.667 24.667 130.667 74 180c50 50.667 110.667 76 182 76h512v-896h-256z" />
    <glyph glyph-name="r" unicode="r" 
d="M0 0v896h512c70.667 0 131 -25.333 181 -76c50 -49.333 75 -109.333 75 -180h-256c0 34.667 -12.667 64.667 -38 90s-55.333 38 -90 38h-128v-768h-256z" />
    <glyph glyph-name="s" unicode="s" 
d="M256 33h-1v0h1zM256 0c-71.333 0 -131.998 25.001 -181.998 75.001c-49.333 49.333 -74 109.666 -74 180.999h256c0 -35.333 12.333 -65.666 37 -90.999c25.333 -24.667 55.666 -37 90.999 -37c34.667 0 64.667 12.333 90 37c25.333 25.333 38 55.666 38 90.999
c0 34.667 -12.667 64.667 -38 90s-55.333 38 -90 38h-128c-71.333 0 -132 25 -182 75c-49.333 49.333 -74 109.666 -74 180.999c0 70.667 25 131 75 181c49.333 50 109.666 75 180.999 75h256c70.667 0 131 -25.333 181 -76c50 -49.333 75 -109.333 75 -180h-256
c0 34.667 -12.667 64.667 -38 90s-55.333 38 -90 38c-35.333 0 -65.666 -12.667 -90.999 -38c-24.667 -25.333 -37 -55.333 -37 -90c0 -35.333 12.333 -65.666 37 -90.999c25.333 -24.667 55.666 -37 90.999 -37h128c70.667 0 131 -25.333 181 -76
c50 -49.333 75 -109.333 75 -180c0 -71.333 -25.333 -132 -76 -182c-49.333 -49.333 -109.333 -74 -180 -74h-256z" />
    <glyph glyph-name="t" unicode="t" 
d="M512 33h-1h1v0zM512 0c-71.333 0 -131.999 25 -181.999 75c-49.333 49.333 -74 109.666 -74 180.999v384h-256v128h256v256h256v-256h256v-128h-256v-384c0 -35.333 12.333 -65.666 37 -90.999c25.333 -24.667 55.666 -37 90.999 -37h128v-128h-256z" />
    <glyph glyph-name="u" unicode="u" 
d="M256 33h-1h1v0zM256 0c-71.333 0 -131.999 25.001 -181.999 75.001c-49.333 49.333 -74 109.666 -74 180.999v640h256v-640c0 -35.333 12.333 -65.666 37 -90.999c25.333 -24.667 55.666 -37 90.999 -37c34.667 0 64.667 12.333 90 37c25.333 25.333 38 55.666 38 90.999
v640h256v-640c0 -71.333 -25.333 -132 -76 -182c-49.333 -49.333 -109.333 -74 -180 -74h-256z" />
    <glyph glyph-name="v" unicode="v" 
d="M256 33h-1h1v0zM256 0c-71.333 0 -131.999 25 -181.999 75c-49.333 49.333 -74 109.666 -74 180.999v640h256v-640c0 -35.333 12.333 -65.666 37 -90.999c25.333 -24.667 55.666 -37 90.999 -37h128v768h256v-896h-512z" />
    <glyph glyph-name="w" unicode="w" horiz-adv-x="1152" 
d="M384 33v0v0v0zM256 33h-1h1v0zM256 0c-71.333 0 -131.999 25 -181.999 75c-49.333 49.333 -74 109.666 -74 180.999v640h256v-640c0 -35.333 12.333 -65.666 37 -90.999c8 -8 17 -15 27 -21c9.33301 6 18 13 26 21c25.333 25.333 38 55.666 38 90.999v640h256v-640
c0 -35.333 12.333 -65.666 37 -90.999c8 -8 17 -15 27 -21c9.33301 6 18 13 26 21c25.333 25.333 38 55.666 38 90.999v640h256v-640c0 -71.333 -25 -131.666 -75 -180.999c-50 -50 -110.333 -75 -181 -75h-128c-47.333 0 -90 11 -128 33
c-38.667 -22 -81.334 -33 -128.001 -33h-128z" />
    <glyph glyph-name="x" unicode="x" 
d="M0 0v256.001c0 70.667 25 131 75 181c3.33301 3.33301 7 6.66602 11 9.99902l-12 12c-49.333 49.333 -74 109.666 -74 180.999v256h256v-256c0 -35.333 12.333 -65.666 37 -90.999c25.333 -24.667 55.666 -37 90.999 -37c34.667 0 64.667 12.333 90 37
c25.333 25.333 38 55.666 38 90.999v256h256v-256c0 -71.333 -25.333 -132 -76 -182c-3.33301 -3.33301 -7 -6.66602 -11 -9.99902l12 -12c50 -49.333 75 -109.333 75 -180v-256h-256v256c0 34.667 -12.667 64.667 -38 90s-55.333 38 -90 38
c-35.333 0 -65.666 -12.667 -90.999 -38c-24.667 -25.333 -37 -55.333 -37 -90v-256h-256z" />
    <glyph glyph-name="y" unicode="y" 
d="M0 0l0.000976562 128.001h384c34.667 0 64.667 12.333 90 37c25.333 25.333 38 55.666 38 90.999v128h-256c-71.333 0 -132 25 -182 75c-49.333 49.333 -74 109.666 -74 180.999v256h256v-256c0 -35.333 12.333 -65.666 37 -90.999c25.333 -24.667 55.666 -37 90.999 -37
h128v384h256v-640c0 -71.333 -25.333 -132 -76 -182c-49.333 -49.333 -109.333 -74 -180 -74h-512z" />
    <glyph glyph-name="z" unicode="z" 
d="M0 0v384l512 256v128h-512v128h768v-384l-512 -256v-128h512v-128h-768z" />
    <glyph glyph-name="braceleft" unicode="{" horiz-adv-x="512" 
d="M0 0v896h384v-128h-128v-640h128v-128h-384z" />
    <glyph glyph-name="bar" unicode="|" horiz-adv-x="384" 
d="M0 0v768h256v-768h-256z" />
    <glyph glyph-name="braceright" unicode="}" horiz-adv-x="512" 
d="M0 0v128h128v640h-128v128h384v-896h-384z" />
    <glyph glyph-name="quoteleft" unicode="&#x2018;" horiz-adv-x="384" 
d="M0 640c0 70.667 25 131 75 181c49.333 50 109.666 75 180.999 75v-128c-35.333 0 -65.666 -12.667 -90.999 -38c-24.667 -25.333 -37 -55.333 -37 -90h-128z" />
    <glyph glyph-name="quoteright" unicode="&#x2019;" horiz-adv-x="384" 
d="M0 640v128.001c34.667 0 64.667 12.333 90 37c25.333 25.333 38 55.666 38 90.999h128c0 -71.333 -25.333 -132 -76 -182c-49.333 -49.333 -109.333 -74 -180 -74v0z" />
    <glyph glyph-name="quotedblleft" unicode="&#x201c;" horiz-adv-x="640" 
d="M0 640c0 70.667 25 131 75 181c49.333 50 109.666 75 180.999 75v-128c-35.333 0 -65.666 -12.667 -90.999 -38c-24.667 -25.333 -37 -55.333 -37 -90h-128zM256 640c0 70.667 25 131 75 181c49.333 50 109.666 75 180.999 75v-128
c-35.333 0 -65.666 -12.667 -90.999 -38c-24.667 -25.333 -37 -55.333 -37 -90h-128z" />
    <glyph glyph-name="quotedblright" unicode="&#x201d;" horiz-adv-x="640" 
d="M0 640v128.001c34.667 0 64.667 12.333 90 37c25.333 25.333 38 55.666 38 90.999h128c0 -71.333 -25.333 -132 -76 -182c-49.333 -49.333 -109.333 -74 -180 -74v0zM256 640.001v128.001c34.667 0 64.667 12.333 90 37c25.333 25.333 38 55.666 38 90.999h128
c0 -71.333 -25.333 -132 -76 -182c-49.333 -49.333 -109.333 -74 -180 -74v0z" />
    <glyph glyph-name="glyph1" horiz-adv-x="0" 
 />
    <glyph glyph-name="glyph2" horiz-adv-x="384" 
 />
  </font>
</defs>
</svg>
